<svg xmlns="http://www.w3.org/2000/svg" width="24" height="24" viewBox="0 0 24 24">
	<rect width="24" height="24" fill="none" />
	<path fill="currentColor" fill-rule="evenodd" d="M4.25 19a.75.75 0 0 1 .75-.75h14a.75.75 0 0 1 0 1.5H5a.75.75 0 0 1-.75-.75m3 3a.75.75 0 0 1 .75-.75h8a.75.75 0 0 1 0 1.5H8a.75.75 0 0 1-.75-.75" clip-rule="evenodd" />
	<path fill="currentColor" d="M6.083 15.25a6.75 6.75 0 1 1 11.835 0H22a.75.75 0 0 1 0 1.5H2a.75.75 0 0 1 0-1.5z" />
	<path fill="currentColor" fill-rule="evenodd" d="M12 1.25a.75.75 0 0 1 .75.75v1a.75.75 0 0 1-1.5 0V2a.75.75 0 0 1 .75-.75M4.399 4.399a.75.75 0 0 1 1.06 0l.393.392a.75.75 0 0 1-1.06 1.061l-.393-.393a.75.75 0 0 1 0-1.06m15.202 0a.75.75 0 0 1 0 1.06l-.393.393a.75.75 0 0 1-1.06-1.06l.393-.393a.75.75 0 0 1 1.06 0M1.25 12a.75.75 0 0 1 .75-.75h1a.75.75 0 0 1 0 1.5H2a.75.75 0 0 1-.75-.75m19 0a.75.75 0 0 1 .75-.75h1a.75.75 0 0 1 0 1.5h-1a.75.75 0 0 1-.75-.75" clip-rule="evenodd" />
</svg>
